<?xml version="1.0" encoding="utf-8"?>
<!-- Generator: Adobe Illustrator 16.0.0, SVG Export Plug-In . SVG Version: 6.00 Build 0)  -->
<!DOCTYPE svg PUBLIC "-//W3C//DTD SVG 1.1//EN" "http://www.w3.org/Graphics/SVG/1.1/DTD/svg11.dtd">
<svg version="1.1" id="Capa_1" xmlns="http://www.w3.org/2000/svg" xmlns:xlink="http://www.w3.org/1999/xlink" x="0px" y="0px"
	 width="30.727px" height="36px" viewBox="0 0 30.727 36" enable-background="new 0 0 30.727 36" xml:space="preserve">
<g>
	<g>
		<path fill="#D9514B" d="M12.726,23.67c-0.528,0-0.991-0.353-1.13-0.861c-0.162-0.592-0.244-1.201-0.243-1.813v-5.63
			c0-2.213,1.8-4.01,4.01-4.01c1.549,0,2.975,0.905,3.633,2.307c0.251,0.597-0.028,1.285-0.625,1.536
			c-0.563,0.238-1.215,0.002-1.497-0.54c-0.393-0.833-1.386-1.191-2.22-0.798c-0.583,0.274-0.956,0.86-0.958,1.504v5.631
			c0,0.405,0.053,0.807,0.159,1.192c0.172,0.622-0.193,1.267-0.815,1.439C12.938,23.654,12.832,23.669,12.726,23.67"/>
		<path fill="#D9514B" d="M18.202,27.843c-1.086-0.001-2.157-0.259-3.124-0.752c-0.575-0.296-0.802-1.002-0.507-1.577
			c0.295-0.576,1-0.803,1.575-0.509c0.001,0.001,0.002,0.001,0.002,0.001c2.219,1.132,4.935,0.25,6.067-1.969
			c0.322-0.633,0.491-1.332,0.492-2.042v-5.631c0-4.049-3.294-7.344-7.344-7.344c-0.647,0-1.171-0.525-1.171-1.172
			c0-0.647,0.525-1.171,1.171-1.172c5.34,0,9.687,4.346,9.687,9.688v5.631C25.045,24.775,21.982,27.839,18.202,27.843"/>
		<path fill="#D9514B" d="M18.202,33.52c-6.906,0-12.525-5.619-12.525-12.524v-5.63c0.008-3.441,1.833-6.623,4.799-8.367
			c0.559-0.327,1.276-0.139,1.604,0.419c0.327,0.559,0.139,1.277-0.419,1.604l0,0c-2.25,1.322-3.634,3.734-3.64,6.343v5.631
			c0,5.614,4.568,10.181,10.182,10.181c1.654,0,3.23-0.384,4.686-1.139c0.574-0.299,1.282-0.074,1.58,0.5
			c0.298,0.574,0.075,1.281-0.5,1.58C22.186,33.038,20.208,33.52,18.202,33.52"/>
		<path fill="#D9514B" d="M26.965,29.384c-0.646,0.001-1.171-0.521-1.172-1.167c0-0.273,0.095-0.539,0.27-0.75
			c1.5-1.823,2.32-4.111,2.321-6.472v-5.631c0-5.4-3.395-10.301-8.449-12.196c-0.002,0-1.304-0.433-2.309-0.614
			c-1.054-0.19-2.267-0.211-2.279-0.211c-7.162,0-13.003,5.841-13.003,13.021v5.631c0,0.647-0.524,1.171-1.171,1.171
			S0,21.643,0,20.995v-5.631C0,6.892,6.892,0,15.363,0c0.075,0.001,1.436,0.023,2.679,0.247c1.185,0.214,2.615,0.692,2.675,0.713
			c6.002,2.249,10.01,8.033,10.01,14.404v5.631c0,2.901-1.015,5.728-2.857,7.963C27.637,29.238,27.302,29.384,26.965,29.384
			 M8.266,36c-0.237,0-0.477-0.07-0.684-0.221c-3.277-2.362-5.681-5.742-6.837-9.613c-0.184-0.621,0.17-1.272,0.791-1.456
			c0.62-0.184,1.272,0.171,1.456,0.791C4,28.874,6.095,31.819,8.951,33.877c0.524,0.38,0.642,1.113,0.262,1.639
			C8.993,35.818,8.641,35.999,8.266,36"/>
	</g>
</g>
</svg>
